<svg width="88" height="88" viewBox="0 0 88 88" fill="none" xmlns="http://www.w3.org/2000/svg">
<circle cx="44" cy="44" r="44" fill="#1D1F2D"/>
<path opacity="0.6" d="M17.9422 26.2294C17.836 24.0228 19.5386 22.1442 21.745 22.0334L65.7079 19.8257C67.9142 19.7149 69.7889 21.4138 69.895 23.6204L70.202 30.001C70.2285 30.5526 69.8028 31.0223 69.2513 31.05L19.2959 33.5587C18.7443 33.5864 18.2757 33.1616 18.2491 32.61L17.9422 26.2294Z" fill="#9F9FA2"/>
<path fill-rule="evenodd" clip-rule="evenodd" d="M20.9922 38.2962C19.3353 38.2962 17.9922 39.6393 17.9922 41.2962V62.6656C17.9922 65.9793 20.6785 68.6656 23.9922 68.6656H64.0077C67.3214 68.6656 70.0077 65.9793 70.0077 62.6656V41.2962C70.0077 39.6393 68.6646 38.2962 67.0077 38.2962H20.9922ZM50.4701 55.4275C50.6733 55.2245 50.9319 54.9108 50.9873 54.837C51.2829 54.4496 51.4306 53.9699 51.4306 53.492C51.4306 52.9551 51.2644 52.4569 50.9504 52.051C50.9246 52.0253 50.8742 51.9705 50.8086 51.899C50.6857 51.7654 50.5093 51.5736 50.3408 51.4053C48.8262 49.7816 44.8733 47.1248 42.8045 46.3129C42.4905 46.1856 41.6962 45.907 41.2714 45.8886C40.865 45.8886 40.4771 45.9808 40.1077 46.1653C39.6459 46.4236 39.2764 46.8296 39.0733 47.3093C38.944 47.6414 38.7408 48.6377 38.7408 48.6561C38.5376 49.7447 38.4268 51.516 38.4268 53.4717C38.4268 55.3371 38.5376 57.0326 38.7038 58.1397C38.7084 58.1442 38.7243 58.2234 38.749 58.3464C38.824 58.7204 38.9804 59.4993 39.1471 59.8187C39.5535 60.5936 40.3478 61.0733 41.1975 61.0733H41.2714C41.8255 61.0548 42.9892 60.5751 42.9892 60.5567C44.9472 59.7449 48.8077 57.2172 50.3593 55.5382L50.4701 55.4275Z" fill="#9F9FA2"/>
</svg>
