<svg width="24" height="24" viewBox="0 0 24 24" fill="none" xmlns="http://www.w3.org/2000/svg">
<g id="Iconly/Bold/Star">
<g id="Star">
<path id="Star_2" d="M17.9184 14.3202C17.6594 14.5712 17.5404 14.9342 17.5994 15.2902L18.4884 20.2102C18.5634 20.6272 18.3874 21.0492 18.0384 21.2902C17.6964 21.5402 17.2414 21.5702 16.8684 21.3702L12.4394 19.0602C12.2854 18.9782 12.1144 18.9342 11.9394 18.9292H11.6684C11.5744 18.9432 11.4824 18.9732 11.3984 19.0192L6.96839 21.3402C6.74939 21.4502 6.50139 21.4892 6.25839 21.4502C5.66639 21.3382 5.27139 20.7742 5.36839 20.1792L6.25839 15.2592C6.31739 14.9002 6.19839 14.5352 5.93939 14.2802L2.32839 10.7802C2.02639 10.4872 1.92139 10.0472 2.05939 9.65015C2.19339 9.25415 2.53539 8.96515 2.94839 8.90015L7.91839 8.17915C8.29639 8.14015 8.62839 7.91015 8.79839 7.57015L10.9884 3.08015C11.0404 2.98015 11.1074 2.88815 11.1884 2.81015L11.2784 2.74015C11.3254 2.68815 11.3794 2.64515 11.4394 2.61015L11.5484 2.57015L11.7184 2.50015H12.1394C12.5154 2.53915 12.8464 2.76415 13.0194 3.10015L15.2384 7.57015C15.3984 7.89715 15.7094 8.12415 16.0684 8.17915L21.0384 8.90015C21.4584 8.96015 21.8094 9.25015 21.9484 9.65015C22.0794 10.0512 21.9664 10.4912 21.6584 10.7802L17.9184 14.3202Z" fill="white"/>
</g>
</g>
</svg>
